<?xml version="1.0" standalone="no"?>
<!DOCTYPE svg PUBLIC "-//W3C//DTD SVG 20010904//EN"
 "http://www.w3.org/TR/2001/REC-SVG-20010904/DTD/svg10.dtd">
<svg version="1.0" xmlns="http://www.w3.org/2000/svg"
 width="500.000000pt" height="500.000000pt" viewBox="0 0 500.000000 500.000000"
 preserveAspectRatio="xMidYMid meet">
<metadata>
Created by potrace 1.14, written by Peter Selinger 2001-2017
</metadata>
<g transform="translate(0.000000,500.000000) scale(0.100000,-0.100000)"
fill="#000000" stroke="none">
<path d="M2377 4704 c-1 -1 -39 -5 -84 -8 -288 -24 -610 -124 -878 -274 -50
-28 -187 -115 -209 -132 -6 -5 -51 -42 -101 -82 -93 -74 -220 -198 -290 -283
-22 -26 -52 -62 -66 -79 -93 -111 -225 -341 -297 -516 -42 -102 -92 -257 -106
-330 -3 -14 -11 -59 -20 -100 -8 -41 -17 -93 -21 -115 -14 -80 -13 -467 1
-560 50 -330 126 -555 280 -834 11 -19 44 -71 74 -116 323 -481 828 -824 1379
-936 112 -23 118 -24 221 -38 70 -10 436 -7 510 4 260 38 517 118 720 223 142
74 138 72 240 141 428 290 735 709 885 1206 19 61 36 128 39 150 4 22 11 63
16 90 6 28 12 61 15 75 11 56 20 192 19 300 -2 416 -111 805 -322 1155 -36 59
-129 195 -141 205 -3 3 -19 23 -36 45 -49 67 -265 277 -355 347 -202 155 -427
275 -665 353 -95 31 -173 53 -215 60 -19 3 -60 10 -90 16 -57 11 -64 12 -165
24 -54 7 -332 14 -338 9z"/>
</g>
</svg>
