<?xml version="1.0" encoding="utf-8" standalone="yes"?>
<!DOCTYPE svg PUBLIC "-//W3C//DTD SVG 1.1//EN" "http://www.w3.org/Graphics/SVG/1.1/DTD/svg11.dtd">
<svg width="890" height="794" viewBox="0 0 890 794" style="fill:none;stroke:none;fill-rule:evenodd;clip-rule:evenodd;stroke-linecap:round;stroke-linejoin:round;stroke-miterlimit:1.5;" version="1.1" xmlns="http://www.w3.org/2000/svg" xmlns:xlink="http://www.w3.org/1999/xlink"><style id="fontImports">@import url("https://fonts.googleapis.com/css2?family=Montserrat:wght@400;700&amp;display=block");</style><g id="items" style="isolation: isolate"><g id="blend" style="mix-blend-mode: normal"><g id="g-root-ro_1ltnf0p13znwuj-fill" data-item-order="-38016" transform="translate(345, 330)"><g id="ro_1ltnf0p13znwuj-fill" stroke="none" fill="#545454"><g><path d="M 34 10L 178 10C 178 10 202 10 202 34L 202 184C 202 184 202 208 178 208L 34 208C 34 208 10 208 10 184L 10 34C 10 34 10 10 34 10"></path></g></g></g><g id="g-root-ro_v9uy1513zmhvr-fill" data-item-order="-18792" transform="translate(63, 123)"><g id="ro_v9uy1513zmhvr-fill" stroke="none" fill="#5c4938"><g><path d="M 22 10L 346 10C 346 10 358 10 358 22L 358 52C 358 52 358 64 346 64L 22 64C 22 64 10 64 10 52L 10 22C 10 22 10 10 22 10"></path></g></g></g><g id="g-root-ro_qs5xhl1407ls5-fill" data-item-order="-16848" transform="translate(3, 459)"><g id="ro_qs5xhl1407ls5-fill" stroke="none" fill="#344e57"><g><path d="M 22 10L 310 10C 310 10 322 10 322 22L 322 52C 322 52 322 64 310 64L 22 64C 22 64 10 64 10 52L 10 22C 10 22 10 10 22 10"></path></g></g></g><g id="g-root-ro_1ltnf0p1403cb1-fill" data-item-order="-16200" transform="translate(567, 441)"><g id="ro_1ltnf0p1403cb1-fill" stroke="none" fill="#60436d"><g><path d="M 22 10L 298 10C 298 10 310 10 310 22L 310 52C 310 52 310 64 298 64L 22 64C 22 64 10 64 10 52L 10 22C 10 22 10 10 22 10"></path></g></g></g><g id="g-root-ro_1cu9qkp13zs45h-fill" data-item-order="-12312" transform="translate(81, 273)"><g id="ro_1cu9qkp13zs45h-fill" stroke="none" fill="#4c4371"><g><path d="M 22 10L 226 10C 226 10 238 10 238 22L 238 52C 238 52 238 64 226 64L 22 64C 22 64 10 64 10 52L 10 22C 10 22 10 10 22 10"></path></g></g></g><g id="g-root-ro_4nkb7t13zs4y3-fill" data-item-order="-11664" transform="translate(483, 141)"><g id="ro_4nkb7t13zs4y3-fill" stroke="none" fill="#68403f"><g><path d="M 22 10L 214 10C 214 10 226 10 226 22L 226 52C 226 52 226 64 214 64L 22 64C 22 64 10 64 10 52L 10 22C 10 22 10 10 22 10"></path></g></g></g><g id="g-root-ro_1d2dqdl1400lqk-fill" data-item-order="-10368" transform="translate(573, 291)"><g id="ro_1d2dqdl1400lqk-fill" stroke="none" fill="#3b5649"><g><path d="M 22 10L 190 10C 190 10 202 10 202 22L 202 52C 202 52 202 64 190 64L 22 64C 22 64 10 64 10 52L 10 22C 10 22 10 10 22 10"></path></g></g></g><g id="g-root-ro_3zykp13zwe81-fill" data-item-order="-10368" transform="translate(345, 609)"><g id="ro_3zykp13zwe81-fill" stroke="none" fill="#4b533a"><g><path d="M 22 10L 190 10C 190 10 202 10 202 22L 202 52C 202 52 202 64 190 64L 22 64C 22 64 10 64 10 52L 10 22C 10 22 10 10 22 10"></path></g></g></g><g id="g-root-cu_m7z6x513zs5qf-fill" data-item-order="0" transform="translate(360.6000061035156, 663)"></g><g id="g-root-tx_apiplann_8vw4ax1400lxi-fill" data-item-order="0" transform="translate(225, 189)"><g id="tx_apiplann_8vw4ax1400lxi-fill" stroke="none" fill="#f4f4f4"><g><text style="font: 15px Montserrat, sans-serif; white-space: pre;" font-size="15px" font-family="Montserrat, sans-serif"><tspan x="14.86" y="31" dominant-baseline="ideographic">API Planning</tspan></text></g></g></g><g id="g-root-cu_qnsp1l13zs4xx-fill" data-item-order="0" transform="translate(326.2174072265625, 177)"></g><g id="g-root-cu_v3m76113zs45m-fill" data-item-order="0" transform="translate(338.3999938964844, 177)"></g><g id="g-root-cu_qnsp1l13zs4y2-fill" data-item-order="0" transform="translate(505.875, 195)"></g><g id="g-root-cu_qnsp1l13zs4xz-fill" data-item-order="0" transform="translate(519, 195)"></g><g id="g-root-tx_database_4gp39l1400jk0-fill" data-item-order="0" transform="translate(555, 207)"><g id="tx_database_4gp39l1400jk0-fill" stroke="none" fill="#f4f4f4"><g><text style="font: 15px Montserrat, sans-serif; white-space: pre;" font-size="15px" font-family="Montserrat, sans-serif"><tspan x="11.79" y="31" dominant-baseline="ideographic">Database Design</tspan></text></g></g></g><g id="g-root-tx_webappli_8vw4ax1400lxj-fill" data-item-order="0" transform="translate(81, 225)"><g id="tx_webappli_8vw4ax1400lxj-fill" stroke="none" fill="#f4f4f4"><g><text style="font: 15px Montserrat, sans-serif; white-space: pre;" font-size="15px" font-family="Montserrat, sans-serif"><tspan x="13.9" y="31" dominant-baseline="ideographic">Web Application Development</tspan></text></g></g></g><g id="g-root-tx_dataimpl_4gp39l1400jk1-fill" data-item-order="0" transform="translate(537, 243)"><g id="tx_dataimpl_4gp39l1400jk1-fill" stroke="none" fill="#f4f4f4"><g><text style="font: 15px Montserrat, sans-serif; white-space: pre;" font-size="15px" font-family="Montserrat, sans-serif"><tspan x="12.85" y="31" dominant-baseline="ideographic">Database Implementation</tspan></text></g></g></g><g id="g-root-cu_18eg8g913zs4y2-fill" data-item-order="0" transform="translate(471, 168)"></g><g id="g-root-cu_m7z6x513zs5qc-fill" data-item-order="0" transform="translate(381, 663)"></g><g id="g-root-tx_deployme_dbpmfd1400l57-fill" data-item-order="0" transform="translate(633, 543)"><g id="tx_deployme_dbpmfd1400l57-fill" stroke="none" fill="#f4f4f4"><g><text style="font: 15px Montserrat, sans-serif; white-space: pre;" font-size="15px" font-family="Montserrat, sans-serif"><tspan x="16.91" y="31" dominant-baseline="ideographic">Deployment</tspan></text></g></g></g><g id="g-root-cu_13ymqbt13zs5qg-fill" data-item-order="0" transform="translate(303, 300)"></g><g id="g-root-cu_13ymqbt13zs5qd-fill" data-item-order="0" transform="translate(441, 528)"></g><g id="g-root-tx_resource_1um64zt1400k5o-fill" data-item-order="0" transform="translate(87, 339)"><g id="tx_resource_1um64zt1400k5o-fill" stroke="none" fill="#f4f4f4"><g><text style="font: 15px Montserrat, sans-serif; white-space: pre;" font-size="15px" font-family="Montserrat, sans-serif"><tspan x="13.02" y="31" dominant-baseline="ideographic">Resource Gathering</tspan></text></g></g></g><g id="g-root-cu_m7z6x513zs5qh-fill" data-item-order="0" transform="translate(248.20001220703125, 327)"></g><g id="g-root-cu_hs5osp13zs6iu-fill" data-item-order="0" transform="translate(248.20001220703125, 327)"></g><g id="g-root-cu_hs5osp13zs6is-fill" data-item-order="0" transform="translate(254.45452880859375, 327)"></g><g id="g-root-cu_v3m76113zs45k-fill" data-item-order="0" transform="translate(242.05264282226562, 513)"></g><g id="g-root-cu_18eg8g913zs4xz-fill" data-item-order="0" transform="translate(387, 150)"></g><g id="g-root-cu_v3m76113zs45h-fill" data-item-order="0" transform="translate(242, 513)"></g><g id="g-root-tx_continuo_dbpmfd1400l58-fill" data-item-order="0" transform="translate(57, 525)"><g id="tx_continuo_dbpmfd1400l58-fill" stroke="none" fill="#f4f4f4"><g><text style="font: 15px Montserrat, sans-serif; white-space: pre;" font-size="15px" font-family="Montserrat, sans-serif"><tspan x="12.64" y="31" dominant-baseline="ideographic">Continuous Integration</tspan></text></g></g></g><g id="g-root-cu_1cu9qkp13zs45i-fill" data-item-order="0" transform="translate(531, 318)"></g><g id="g-root-tx_integrat_m7cmo91400kci-fill" data-item-order="0" transform="translate(633, 507)"><g id="tx_integrat_m7cmo91400kci-fill" stroke="none" fill="#f4f4f4"><g><text style="font: 15px Montserrat, sans-serif; white-space: pre;" font-size="15px" font-family="Montserrat, sans-serif"><tspan x="16.13" y="31" dominant-baseline="ideographic">Integration</tspan></text></g></g></g><g id="g-root-cu_zit87d13zs6iw-fill" data-item-order="0" transform="translate(603, 495)"></g><g id="g-root-cu_zit87d13zs6iz-fill" data-item-order="0" transform="translate(602.4000244140625, 495)"></g><g id="g-root-cu_13ymqbt13zs5qj-fill" data-item-order="0" transform="translate(603, 345)"></g><g id="g-root-cu_zit87d13zs6iu-fill" data-item-order="0" transform="translate(603, 345)"></g><g id="g-root-tx_design_m7cmo91400kcg-fill" data-item-order="0" transform="translate(633, 357)"><g id="tx_design_m7cmo91400kcg-fill" stroke="none" fill="#f4f4f4"><g><text style="font: 15px Montserrat, sans-serif; white-space: pre;" font-size="15px" font-family="Montserrat, sans-serif"><tspan x="13.38" y="31" dominant-baseline="ideographic">Design</tspan></text></g></g></g><g id="g-root-tx_document_1um64zt1400k5p-fill" data-item-order="0" transform="translate(129, 375)"><g id="tx_document_1um64zt1400k5p-fill" stroke="none" fill="#f4f4f4"><g><text style="font: 15px Montserrat, sans-serif; white-space: pre;" font-size="15px" font-family="Montserrat, sans-serif"><tspan x="17" y="31" dominant-baseline="ideographic">Documenting</tspan></text></g></g></g><g id="g-root-tx_automati_4gp39l1400jk3-fill" data-item-order="0" transform="translate(381, 711)"><g id="tx_automati_4gp39l1400jk3-fill" stroke="none" fill="#f4f4f4"><g><text style="font: 15px Montserrat, sans-serif; white-space: pre;" font-size="15px" font-family="Montserrat, sans-serif"><tspan x="15.52" y="31" dominant-baseline="ideographic">System Automations</tspan></text></g></g></g><g id="g-root-cu_18eg8g913zs4xt-fill" data-item-order="0" transform="translate(531, 462)"></g><g id="g-root-cu_18eg8g913zs4xw-fill" data-item-order="0" transform="translate(303, 462)"></g><g id="g-root-tx_implemen_m7cmo91400kch-fill" data-item-order="0" transform="translate(633, 393)"><g id="tx_implemen_m7cmo91400kch-fill" stroke="none" fill="#f4f4f4"><g><text style="font: 15px Montserrat, sans-serif; white-space: pre;" font-size="15px" font-family="Montserrat, sans-serif"><tspan x="14.43" y="31" dominant-baseline="ideographic">Implementation</tspan></text></g></g></g><g id="g-root-tx_teammana_1um64zt1400k5q-fill" data-item-order="0" transform="translate(87, 411)"><g id="tx_teammana_1um64zt1400k5q-fill" stroke="none" fill="#f4f4f4"><g><text style="font: 15px Montserrat, sans-serif; white-space: pre;" font-size="15px" font-family="Montserrat, sans-serif"><tspan x="13.98" y="31" dominant-baseline="ideographic">Team Management</tspan></text></g></g></g><g id="g-root-tx_scraping_4gp39l1400jk2-fill" data-item-order="0" transform="translate(411, 675)"><g id="tx_scraping_4gp39l1400jk2-fill" stroke="none" fill="#f4f4f4"><g><text style="font: 15px Montserrat, sans-serif; white-space: pre;" font-size="15px" font-family="Montserrat, sans-serif"><tspan x="12.72" y="31" dominant-baseline="ideographic">Scraping</tspan></text></g></g></g><g id="g-root-tx_continuo_8vw4ax1400lxh-fill" data-item-order="0" transform="translate(45, 561)"><g id="tx_continuo_8vw4ax1400lxh-fill" stroke="none" fill="#f4f4f4"><g><text style="font: 15px Montserrat, sans-serif; white-space: pre;" font-size="15px" font-family="Montserrat, sans-serif"><tspan x="13.43" y="31" dominant-baseline="ideographic">Continuous Deployment</tspan></text></g></g></g><g id="g-root-arro_1uony6h1403eo4-fill" data-item-order="1000000000" transform="translate(579, 453)"></g><g id="g-root-tx_systemso_1uony6h1403eo3-fill" data-item-order="1000000000" transform="translate(615, 456)"><g id="tx_systemso_1uony6h1403eo3-fill" stroke="none" fill="#cb68f9"><g><text style="font: 20px Montserrat, sans-serif; white-space: pre;" font-size="20px" font-family="Montserrat, sans-serif"><tspan x="16.73" y="34" dominant-baseline="ideographic">Systems Orchestration</tspan></text></g></g></g><g id="g-root-tx_developm_v7zfm11407kzv-fill" data-item-order="1000000000" transform="translate(15, 474)"><g id="tx_developm_v7zfm11407kzv-fill" stroke="none" fill="#1ac3fb"><g><text style="font: 20px Montserrat, sans-serif; white-space: pre;" font-size="20px" font-family="Montserrat, sans-serif"><tspan x="15.27" y="34" dominant-baseline="ideographic">Development Processes</tspan></text></g></g></g><g id="g-root-writ_qs5xhl1407ls4-fill" data-item-order="1000000000" transform="translate(273, 471)"></g><g id="g-root-tx_software_3debt13znymh-fill" data-item-order="1000000000" transform="translate(369, 408)"><g id="tx_software_3debt13znymh-fill" stroke="none" fill="#f4f4f4"><g><text style="font: 20px Montserrat, sans-serif; white-space: pre;" font-size="20px" font-family="Montserrat, sans-serif"><tspan x="36.43" y="34" dominant-baseline="ideographic">Software </tspan><tspan x="11.89" y="58" dominant-baseline="ideographic">Development </tspan><tspan x="61.16" y="82" dominant-baseline="ideographic">and </tspan><tspan x="12.13" y="106" dominant-baseline="ideographic">Management</tspan></text></g></g></g><g id="g-root-shar_1upaf9l13znw1u-fill" data-item-order="1000000000" transform="translate(417, 354)"></g><g id="g-root-tx_architec_1ly0qmh1400kxu-fill" data-item-order="1000000000" transform="translate(621, 306)"><g id="tx_architec_1ly0qmh1400kxu-fill" stroke="none" fill="#43dd93"><g><text style="font: 20px Montserrat, sans-serif; white-space: pre;" font-size="20px" font-family="Montserrat, sans-serif"><tspan x="13.72" y="34" dominant-baseline="ideographic">Architecture</tspan></text></g></g></g><g id="g-root-6_1d2dqdl1400lqj-fill" data-item-order="1000000000" transform="translate(585, 303)"></g><g id="g-root-sett_1hjgczt13zqryk-fill" data-item-order="1000000000" transform="translate(267, 285)"></g><g id="g-root-tx_teamdyna_1qf3d8p13zqr5v-fill" data-item-order="1000000000" transform="translate(93, 288)"><g id="tx_teamdyna_1qf3d8p13zqr5v-fill" stroke="none" fill="#8769fd"><g><text style="font: 20px Montserrat, sans-serif; white-space: pre;" font-size="20px" font-family="Montserrat, sans-serif"><tspan x="13.63" y="34" dominant-baseline="ideographic">Team Dynamics</tspan></text></g></g></g><g id="g-root-1_4jtgp513zwdfs-fill" data-item-order="1000000000" transform="translate(357, 621)"></g><g id="g-root-tx_automati_4jtgp513zwdfr-fill" data-item-order="1000000000" transform="translate(393, 624)"><g id="tx_automati_4jtgp513zwdfr-fill" stroke="none" fill="#a6da37"><g><text style="font: 20px Montserrat, sans-serif; white-space: pre;" font-size="20px" font-family="Montserrat, sans-serif"><tspan x="15.77" y="34" dominant-baseline="ideographic">Automation</tspan></text></g></g></g><g id="g-root-tx_datahand_dj7bgp13zs45d-fill" data-item-order="1000000000" transform="translate(531, 156)"><g id="tx_datahand_dj7bgp13zs45d-fill" stroke="none" fill="#fb6762"><g><text style="font: 20px Montserrat, sans-serif; white-space: pre;" font-size="20px" font-family="Montserrat, sans-serif"><tspan x="14.88" y="34" dominant-baseline="ideographic">Data Handling</tspan></text></g></g></g><g id="g-root-2_dj7bgp13zs45e-fill" data-item-order="1000000000" transform="translate(495, 153)"></g><g id="g-root-arti_v9uy1513zmhvq-fill" data-item-order="1000000000" transform="translate(369, 135)"></g><g id="g-root-tx_apiandwe_zp1z2h13zmk99-fill" data-item-order="1000000000" transform="translate(75, 138)"><g id="tx_apiandwe_zp1z2h13zmk99-fill" stroke="none" fill="#f79438"><g><text style="font: 20px Montserrat, sans-serif; white-space: pre;" font-size="20px" font-family="Montserrat, sans-serif"><tspan x="17.3" y="34" dominant-baseline="ideographic">API and Web Development</tspan></text></g></g></g><g id="g-root-ro_1ltnf0p13znwuj-stroke" data-item-order="-38016" transform="translate(345, 330)"><g id="ro_1ltnf0p13znwuj-stroke" fill="none" stroke-linecap="round" stroke-linejoin="round" stroke-miterlimit="4" stroke="#f4f4f4" stroke-width="2"><g><path d="M 34 10L 178 10C 178 10 202 10 202 34L 202 184C 202 184 202 208 178 208L 34 208C 34 208 10 208 10 184L 10 34C 10 34 10 10 34 10"></path></g></g></g><g id="g-root-ro_v9uy1513zmhvr-stroke" data-item-order="-18792" transform="translate(63, 123)"><g id="ro_v9uy1513zmhvr-stroke" fill="none" stroke-linecap="round" stroke-linejoin="round" stroke-miterlimit="4" stroke="#f79438" stroke-width="2"><g><path d="M 22 10L 346 10C 346 10 358 10 358 22L 358 52C 358 52 358 64 346 64L 22 64C 22 64 10 64 10 52L 10 22C 10 22 10 10 22 10"></path></g></g></g><g id="g-root-ro_qs5xhl1407ls5-stroke" data-item-order="-16848" transform="translate(3, 459)"><g id="ro_qs5xhl1407ls5-stroke" fill="none" stroke-linecap="round" stroke-linejoin="round" stroke-miterlimit="4" stroke="#1ac3fb" stroke-width="2"><g><path d="M 22 10L 310 10C 310 10 322 10 322 22L 322 52C 322 52 322 64 310 64L 22 64C 22 64 10 64 10 52L 10 22C 10 22 10 10 22 10"></path></g></g></g><g id="g-root-ro_1ltnf0p1403cb1-stroke" data-item-order="-16200" transform="translate(567, 441)"><g id="ro_1ltnf0p1403cb1-stroke" fill="none" stroke-linecap="round" stroke-linejoin="round" stroke-miterlimit="4" stroke="#cb68f9" stroke-width="2"><g><path d="M 22 10L 298 10C 298 10 310 10 310 22L 310 52C 310 52 310 64 298 64L 22 64C 22 64 10 64 10 52L 10 22C 10 22 10 10 22 10"></path></g></g></g><g id="g-root-ro_1cu9qkp13zs45h-stroke" data-item-order="-12312" transform="translate(81, 273)"><g id="ro_1cu9qkp13zs45h-stroke" fill="none" stroke-linecap="round" stroke-linejoin="round" stroke-miterlimit="4" stroke="#8769fd" stroke-width="2"><g><path d="M 22 10L 226 10C 226 10 238 10 238 22L 238 52C 238 52 238 64 226 64L 22 64C 22 64 10 64 10 52L 10 22C 10 22 10 10 22 10"></path></g></g></g><g id="g-root-ro_4nkb7t13zs4y3-stroke" data-item-order="-11664" transform="translate(483, 141)"><g id="ro_4nkb7t13zs4y3-stroke" fill="none" stroke-linecap="round" stroke-linejoin="round" stroke-miterlimit="4" stroke="#fb6762" stroke-width="2"><g><path d="M 22 10L 214 10C 214 10 226 10 226 22L 226 52C 226 52 226 64 214 64L 22 64C 22 64 10 64 10 52L 10 22C 10 22 10 10 22 10"></path></g></g></g><g id="g-root-ro_1d2dqdl1400lqk-stroke" data-item-order="-10368" transform="translate(573, 291)"><g id="ro_1d2dqdl1400lqk-stroke" fill="none" stroke-linecap="round" stroke-linejoin="round" stroke-miterlimit="4" stroke="#43dd93" stroke-width="2"><g><path d="M 22 10L 190 10C 190 10 202 10 202 22L 202 52C 202 52 202 64 190 64L 22 64C 22 64 10 64 10 52L 10 22C 10 22 10 10 22 10"></path></g></g></g><g id="g-root-ro_3zykp13zwe81-stroke" data-item-order="-10368" transform="translate(345, 609)"><g id="ro_3zykp13zwe81-stroke" fill="none" stroke-linecap="round" stroke-linejoin="round" stroke-miterlimit="4" stroke="#a6da37" stroke-width="2"><g><path d="M 22 10L 190 10C 190 10 202 10 202 22L 202 52C 202 52 202 64 190 64L 22 64C 22 64 10 64 10 52L 10 22C 10 22 10 10 22 10"></path></g></g></g><g id="g-root-cu_m7z6x513zs5qf-stroke" data-item-order="0" transform="translate(360.6000061035156, 663)"><g id="cu_m7z6x513zs5qf-stroke" fill="none" stroke-linecap="round" stroke-linejoin="round" stroke-miterlimit="4" stroke="#b7b7b7" stroke-width="2" stroke-dasharray="5.0, 7.0"><g><path d="M 30.4 10L 30.4 13.8L 30.4 28C 30.405577 30.595952 29.384104 33.378584 27.500001 35.9C 26.348667 37.406116 23.690412 38.899109 20.2 39.999998C 16.709588 41.100887 14.051334 42.593879 12.9 44.099998C 11.015897 46.621416 9.994424 49.404047 10 52L 10 52.1L 10 59.6C 9.999999 65.343759 14.656237 69.999998 20.399999 69.999998L 20.5 70L 22 70"></path></g></g></g><g id="g-root-tx_apiplann_8vw4ax1400lxi-stroke" data-item-order="0" transform="translate(225, 189)"></g><g id="g-root-cu_qnsp1l13zs4xx-stroke" data-item-order="0" transform="translate(326.2174072265625, 177)"><g id="cu_qnsp1l13zs4xx-stroke" fill="none" stroke-linecap="round" stroke-linejoin="round" stroke-miterlimit="4" stroke="#b7b7b7" stroke-width="2" stroke-dasharray="5.0, 7.0"><g><path d="M 46.8 10L 46.8 17.5L 46.8 58C 46.799999 64.62742 41.427416 70.000003 34.799999 70.000002L 34.7 70L 10 70"></path></g></g></g><g id="g-root-cu_v3m76113zs45m-stroke" data-item-order="0" transform="translate(338.3999938964844, 177)"><g id="cu_v3m76113zs45m-stroke" fill="none" stroke-linecap="round" stroke-linejoin="round" stroke-miterlimit="4" stroke="#b7b7b7" stroke-width="2" stroke-dasharray="5.0, 7.0"><g><path d="M 34.6 10L 34.6 16L 34.6 22L 35.2 22L 35.8 22L 35.8 28L 35.8 34L 22.9 34L 10 34"></path></g></g></g><g id="g-root-cu_qnsp1l13zs4y2-stroke" data-item-order="0" transform="translate(505.875, 195)"><g id="cu_qnsp1l13zs4y2-stroke" fill="none" stroke-linecap="round" stroke-linejoin="round" stroke-miterlimit="4" stroke="#b7b7b7" stroke-width="2" stroke-dasharray="5.0, 7.0"><g><path d="M 23.1 10L 23.1 13.8L 23.1 28C 23.108685 30.139292 22.525022 32.473945 21.4 34.800001C 20.756603 36.187841 19.036182 38.05163 16.600001 40C 14.158602 41.931169 12.404513 43.792651 11.700002 45.2C 10.574978 47.526058 9.991315 49.860711 10 52.000003L 10 52.1L 10 58C 10.000002 64.627417 15.372585 70 22.000002 69.999999L 22.1 70L 34.8 70"></path></g></g></g><g id="g-root-cu_qnsp1l13zs4xz-stroke" data-item-order="0" transform="translate(519, 195)"><g id="cu_qnsp1l13zs4xz-stroke" fill="none" stroke-linecap="round" stroke-linejoin="round" stroke-miterlimit="4" stroke="#b7b7b7" stroke-width="2" stroke-dasharray="5.0, 7.0"><g><path d="M 10 10L 10 22L 10 34L 25.5 34L 40.9 34"></path></g></g></g><g id="g-root-tx_database_4gp39l1400jk0-stroke" data-item-order="0" transform="translate(555, 207)"></g><g id="g-root-tx_webappli_8vw4ax1400lxj-stroke" data-item-order="0" transform="translate(81, 225)"></g><g id="g-root-tx_dataimpl_4gp39l1400jk1-stroke" data-item-order="0" transform="translate(537, 243)"></g><g id="g-root-cu_18eg8g913zs4y2-stroke" data-item-order="0" transform="translate(471, 168)"><g id="cu_18eg8g913zs4y2-stroke" fill="none" stroke-linecap="round" stroke-linejoin="round" stroke-miterlimit="4" stroke="#b7b7b7" stroke-width="2" stroke-dasharray="5.0, 7.0"><g><path d="M 10 172L 10 151.8L 10 30.9C 10 19.357248 19.357248 10 30.899998 10L 31 10L 34 10"></path></g></g></g><g id="g-root-cu_m7z6x513zs5qc-stroke" data-item-order="0" transform="translate(381, 663)"><g id="cu_m7z6x513zs5qc-stroke" fill="none" stroke-linecap="round" stroke-linejoin="round" stroke-miterlimit="4" stroke="#b7b7b7" stroke-width="2" stroke-dasharray="5.0, 7.0"><g><path d="M 10 10L 10 22L 10 34L 22.4 34L 34.9 34"></path></g></g></g><g id="g-root-tx_deployme_dbpmfd1400l57-stroke" data-item-order="0" transform="translate(633, 543)"></g><g id="g-root-cu_13ymqbt13zs5qg-stroke" data-item-order="0" transform="translate(303, 300)"><g id="cu_13ymqbt13zs5qg-stroke" fill="none" stroke-linecap="round" stroke-linejoin="round" stroke-miterlimit="4" stroke="#b7b7b7" stroke-width="2" stroke-dasharray="5.0, 7.0"><g><path d="M 58 106L 55 106L 54.9 106C 43.357252 106 34.000003 96.642751 34.000003 85.1L 34 85L 34 30.9C 33.999998 19.357248 24.64275 10 13.1 10L 13 10L 10 10"></path></g></g></g><g id="g-root-cu_13ymqbt13zs5qd-stroke" data-item-order="0" transform="translate(441, 528)"><g id="cu_13ymqbt13zs5qd-stroke" fill="none" stroke-linecap="round" stroke-linejoin="round" stroke-miterlimit="4" stroke="#b7b7b7" stroke-width="2" stroke-dasharray="5.0, 7.0"><g><path d="M 10 10L 10 50.5L 10 91"></path></g></g></g><g id="g-root-tx_resource_1um64zt1400k5o-stroke" data-item-order="0" transform="translate(87, 339)"></g><g id="g-root-cu_m7z6x513zs5qh-stroke" data-item-order="0" transform="translate(248.20001220703125, 327)"><g id="cu_m7z6x513zs5qh-stroke" fill="none" stroke-linecap="round" stroke-linejoin="round" stroke-miterlimit="4" stroke="#b7b7b7" stroke-width="2" stroke-dasharray="5.0, 7.0"><g><path d="M 40.8 10L 40.8 22L 40.8 34L 25.4 34L 10 34"></path></g></g></g><g id="g-root-cu_hs5osp13zs6iu-stroke" data-item-order="0" transform="translate(248.20001220703125, 327)"><g id="cu_hs5osp13zs6iu-stroke" fill="none" stroke-linecap="round" stroke-linejoin="round" stroke-miterlimit="4" stroke="#b7b7b7" stroke-width="2" stroke-dasharray="5.0, 7.0"><g><path d="M 40.8 10L 40.8 16L 40.8 46C 40.817146 47.898649 41.120761 49.990219 41.699998 52.200001C 42.001344 53.499689 42.885946 55.551966 44.200005 58.000001C 45.514063 60.448037 46.398665 62.500313 46.700005 63.800001C 47.279234 66.009783 47.582849 68.101353 47.599997 70.000001L 47.6 70.1L 47.6 94C 47.600003 100.627425 42.227419 106.000008 35.600001 106.000008L 35.5 106L 10 106"></path></g></g></g><g id="g-root-cu_hs5osp13zs6is-stroke" data-item-order="0" transform="translate(254.45452880859375, 327)"><g id="cu_hs5osp13zs6is-stroke" fill="none" stroke-linecap="round" stroke-linejoin="round" stroke-miterlimit="4" stroke="#b7b7b7" stroke-width="2" stroke-dasharray="5.0, 7.0"><g><path d="M 34.5 10L 34.5 25L 34.5 40L 38.1 40L 41.6 40L 41.6 55L 41.6 70L 25.8 70L 10 70"></path></g></g></g><g id="g-root-cu_v3m76113zs45k-stroke" data-item-order="0" transform="translate(242.05264282226562, 513)"><g id="cu_v3m76113zs45k-stroke" fill="none" stroke-linecap="round" stroke-linejoin="round" stroke-miterlimit="4" stroke="#b7b7b7" stroke-width="2" stroke-dasharray="5.0, 7.0"><g><path d="M 46.9 10L 46.9 13.8L 46.9 28C 46.924405 29.898596 47.227914 31.98944 47.800001 34.200002C 48.140011 35.52839 49.02258 37.575949 50.300001 40.000001C 51.598404 42.500674 52.44997 44.558625 52.700002 45.800001C 53.272089 48.010564 53.575598 50.101409 53.600001 52.000003L 53.6 52.1L 53.6 58C 53.599998 64.627415 48.227415 69.999998 41.599999 69.999998L 41.5 70L 10 70"></path></g></g></g><g id="g-root-cu_18eg8g913zs4xz-stroke" data-item-order="0" transform="translate(387, 150)"><g id="cu_18eg8g913zs4xz-stroke" fill="none" stroke-linecap="round" stroke-linejoin="round" stroke-miterlimit="4" stroke="#b7b7b7" stroke-width="2" stroke-dasharray="5.0, 7.0"><g><path d="M 34 190L 34 167.5L 34 30.9C 33.999998 19.357248 24.64275 10 13.1 10L 13 10L 10 10"></path></g></g></g><g id="g-root-cu_v3m76113zs45h-stroke" data-item-order="0" transform="translate(242, 513)"><g id="cu_v3m76113zs45h-stroke" fill="none" stroke-linecap="round" stroke-linejoin="round" stroke-miterlimit="4" stroke="#b7b7b7" stroke-width="2" stroke-dasharray="5.0, 7.0"><g><path d="M 47 10L 47 16L 47 22L 47.3 22L 47.7 22L 47.7 28L 47.7 34L 28.8 34L 10 34"></path></g></g></g><g id="g-root-tx_continuo_dbpmfd1400l58-stroke" data-item-order="0" transform="translate(57, 525)"></g><g id="g-root-cu_1cu9qkp13zs45i-stroke" data-item-order="0" transform="translate(531, 318)"><g id="cu_1cu9qkp13zs45i-stroke" fill="none" stroke-linecap="round" stroke-linejoin="round" stroke-miterlimit="4" stroke="#b7b7b7" stroke-width="2" stroke-dasharray="5.0, 7.0"><g><path d="M 10 88L 13 88L 13.1 88C 24.642753 88.000001 34.000002 78.642752 34.000002 67.100001L 34 67L 34 30.9C 33.999999 19.357249 43.357248 10.000001 54.899999 10.000002L 55 10L 58 10"></path></g></g></g><g id="g-root-tx_integrat_m7cmo91400kci-stroke" data-item-order="0" transform="translate(633, 507)"></g><g id="g-root-cu_zit87d13zs6iw-stroke" data-item-order="0" transform="translate(603, 495)"><g id="cu_zit87d13zs6iw-stroke" fill="none" stroke-linecap="round" stroke-linejoin="round" stroke-miterlimit="4" stroke="#b7b7b7" stroke-width="2" stroke-dasharray="5.0, 7.0"><g><path d="M 10 10L 10 22L 10 34L 22.3 34L 34.7 34"></path></g></g></g><g id="g-root-cu_zit87d13zs6iz-stroke" data-item-order="0" transform="translate(602.4000244140625, 495)"><g id="cu_zit87d13zs6iz-stroke" fill="none" stroke-linecap="round" stroke-linejoin="round" stroke-miterlimit="4" stroke="#b7b7b7" stroke-width="2" stroke-dasharray="5.0, 7.0"><g><path d="M 10.6 10L 10.6 13.8L 10.6 28C 10.590391 29.823844 10.556917 31.832268 10.5 33.999999L 10.3 40L 10.1 46C 10.043083 48.167729 10.009609 50.176153 10 51.999998L 10 52.1L 10 58C 10.000002 64.627417 15.372585 70 22.000002 69.999999L 22.1 70L 35.2 70"></path></g></g></g><g id="g-root-cu_13ymqbt13zs5qj-stroke" data-item-order="0" transform="translate(603, 345)"><g id="cu_13ymqbt13zs5qj-stroke" fill="none" stroke-linecap="round" stroke-linejoin="round" stroke-miterlimit="4" stroke="#b7b7b7" stroke-width="2" stroke-dasharray="5.0, 7.0"><g><path d="M 10 10L 10 22L 10 34L 22.5 34L 35 34"></path></g></g></g><g id="g-root-cu_zit87d13zs6iu-stroke" data-item-order="0" transform="translate(603, 345)"><g id="cu_zit87d13zs6iu-stroke" fill="none" stroke-linecap="round" stroke-linejoin="round" stroke-miterlimit="4" stroke="#b7b7b7" stroke-width="2" stroke-dasharray="5.0, 7.0"><g><path d="M 10 10L 10 17.5L 10 58C 10.000002 64.627417 15.372585 70 22.000002 69.999999L 22.1 70L 34.5 70"></path></g></g></g><g id="g-root-tx_design_m7cmo91400kcg-stroke" data-item-order="0" transform="translate(633, 357)"></g><g id="g-root-tx_document_1um64zt1400k5p-stroke" data-item-order="0" transform="translate(129, 375)"></g><g id="g-root-tx_automati_4gp39l1400jk3-stroke" data-item-order="0" transform="translate(381, 711)"></g><g id="g-root-cu_18eg8g913zs4xt-stroke" data-item-order="0" transform="translate(531, 462)"><g id="cu_18eg8g913zs4xt-stroke" fill="none" stroke-linecap="round" stroke-linejoin="round" stroke-miterlimit="4" stroke="#b7b7b7" stroke-width="2" stroke-dasharray="5.0, 7.0"><g><path d="M 10 10L 13 10L 13.1 10C 16.311297 10.016369 19.867515 10.284763 23.700001 10.800001C 25.868292 11.054283 29.498118 11.829585 33.999999 13C 38.50188 14.170414 42.131706 14.945717 44.299999 15.2C 48.132487 15.71524 51.688705 15.983634 54.900002 16.000002L 55 16L 58 16"></path></g></g></g><g id="g-root-cu_18eg8g913zs4xw-stroke" data-item-order="0" transform="translate(303, 462)"><g id="cu_18eg8g913zs4xw-stroke" fill="none" stroke-linecap="round" stroke-linejoin="round" stroke-miterlimit="4" stroke="#b7b7b7" stroke-width="2" stroke-dasharray="5.0, 7.0"><g><path d="M 58 10L 55 10L 54.9 10C 51.082625 9.984469 46.916124 11.086353 42.799999 13.200002C 40.359884 14.492983 37.210166 17.642701 34.000001 22C 30.789835 26.357299 27.640117 29.507017 25.200001 30.800001C 21.083873 32.913649 16.917373 34.015533 13.099999 34L 13 34L 10 34"></path></g></g></g><g id="g-root-tx_implemen_m7cmo91400kch-stroke" data-item-order="0" transform="translate(633, 393)"></g><g id="g-root-tx_teammana_1um64zt1400k5q-stroke" data-item-order="0" transform="translate(87, 411)"></g><g id="g-root-tx_scraping_4gp39l1400jk2-stroke" data-item-order="0" transform="translate(411, 675)"></g><g id="g-root-tx_continuo_8vw4ax1400lxh-stroke" data-item-order="0" transform="translate(45, 561)"></g><g id="g-root-arro_1uony6h1403eo4-stroke" data-item-order="1000000000" transform="translate(579, 453)"><g id="arro_1uony6h1403eo4-stroke" fill="none" stroke-linecap="round" stroke-linejoin="round" stroke-miterlimit="4" stroke="#cb68f9" stroke-width="2"><g><path d="M 39.375 18.75L 39.375 19.973751C 39.377808 21.014725 38.540913 21.863338 37.5 21.875L 26.25 21.875C 25.209373 21.862661 24.372869 21.014446 24.375 19.973749L 24.375 12.5C 24.375 11.464466 25.214466 10.625 26.25 10.625L 37.5 10.625C 38.535534 10.625 39.375 11.464466 39.375 12.5ZM 39.375 18.125L 24.375 18.125M 35 24.375L 28.75 24.375M 31.875 21.875L 31.875 24.375M 25.625 33.75L 25.625 34.973751C 25.62781 36.014725 24.790913 36.863335 23.75 36.875L 12.5 36.875C 11.459374 36.862663 10.62287 36.014446 10.625 34.973751L 10.625 27.5C 10.625 26.464466 11.464466 25.625 12.5 25.625L 23.75 25.625C 24.785534 25.625 25.625 26.464466 25.625 27.5ZM 25.625 33.125L 10.625 33.125M 21.25 39.375L 15 39.375M 18.125 36.875L 18.125 39.375M 13.125 20.625L 13.125 17.1875C 13.12431 14.598379 15.223379 12.49931 17.8125 12.5L 20 12.5M 15.625 18.125L 13.125 20.625L 10.625 18.125M 18.125 10.625L 20 12.5L 18.125 14.375"></path></g></g></g><g id="g-root-tx_systemso_1uony6h1403eo3-stroke" data-item-order="1000000000" transform="translate(615, 456)"></g><g id="g-root-tx_developm_v7zfm11407kzv-stroke" data-item-order="1000000000" transform="translate(15, 474)"></g><g id="g-root-writ_qs5xhl1407ls4-stroke" data-item-order="1000000000" transform="translate(273, 471)"><g id="writ_qs5xhl1407ls4-stroke" fill="none" stroke-linecap="round" stroke-linejoin="round" stroke-miterlimit="4" stroke="#1ac3fb" stroke-width="2"><g><path d="M 30 38.125L 25.625 39.375L 26.875 35L 35.80875 26.065001C 35.926006 25.947449 36.085217 25.881382 36.251251 25.881382C 36.417282 25.881382 36.576496 25.947449 36.693748 26.065001L 38.93375 28.305C 39.0513 28.422256 39.117367 28.581465 39.117367 28.747499C 39.117367 28.913534 39.0513 29.072744 38.93375 29.190001ZM 33.751251 28.123749L 36.876251 31.248751M 26.875 35.001251L 30 38.126251M 14.375 19.375L 20.625 19.375L 20.625 23.125L 14.375 23.125ZM 14.375 25.625L 20.625 25.625L 20.625 29.375L 14.375 29.375ZM 14.375 31.875L 20.625 31.875L 20.625 35.625L 14.375 35.625ZM 22.5 39.375L 11.875 39.375C 11.184644 39.375 10.625 38.815353 10.625 38.125L 10.625 11.875C 10.625 11.184644 11.184644 10.625 11.875 10.625L 23.8575 10.625C 24.188993 10.625071 24.506884 10.756813 24.741251 10.99125L 31.508751 17.758749C 31.743187 17.993116 31.874928 18.311007 31.875 18.6425L 31.875 26.25M 24.375 10.7375L 24.375 16.875C 24.375 17.565355 24.934643 18.125 25.625 18.125L 31.762501 18.125M 20.625 20.625L 23.125 20.625C 23.815357 20.625 24.375 21.184643 24.375 21.875L 24.375 31.875C 24.375 32.565353 23.815357 33.125 23.125 33.125L 20.625 33.125M 20.625 26.875L 27.5 26.875"></path></g></g></g><g id="g-root-tx_software_3debt13znymh-stroke" data-item-order="1000000000" transform="translate(369, 408)"></g><g id="g-root-shar_1upaf9l13znw1u-stroke" data-item-order="1000000000" transform="translate(417, 354)"><g id="shar_1upaf9l13znw1u-stroke" fill="none" stroke-linecap="round" stroke-linejoin="round" stroke-miterlimit="4" stroke="#f4f4f4" stroke-width="2"><g><path d="M 56.841999 13.21L 56.841999 26.691999M 37.578003 11L 54.956001 11C 54.956001 11 57 11 57 13.044L 57 29.4C 57 29.4 57 31.444 54.956001 31.444L 37.578003 31.444C 37.578003 31.444 35.534 31.444 35.534 29.4L 35.534 13.044C 35.534 13.044 35.534 11 37.578003 11M 35.534 17.962L 57 17.962M 35.534 24.704L 57 24.704M 45.242001 17.962L 45.242001 31.444M 11 38.436001C 11.0055 37.310715 11.918699 36.401085 13.044001 36.400002L 33.487999 36.400002C 34.617195 36.400002 35.532898 37.314808 35.534 38.444L 35.534 49.076C 35.532898 50.205193 34.617195 51.120003 33.487999 51.120003L 13.044 51.119999C 12.500672 51.119473 11.979868 50.902855 11.596428 50.517914C 11.212988 50.132973 10.998406 49.611328 11 49.068001ZM 21 51.112L 19.4 57M 25.542 51.112L 27.125999 57M 17.133999 57L 29.4 57M 20.200001 24.616001L 15.6 29.030001L 15.6 24.616001C 15.668884 21.296635 18.414597 18.661037 21.734001 18.728001L 29.4 18.728001M 11 24.616001L 15.6 29.032M 24.799999 14.312L 29.4 18.728001L 24.799999 23.144001"></path></g></g></g><g id="g-root-tx_architec_1ly0qmh1400kxu-stroke" data-item-order="1000000000" transform="translate(621, 306)"></g><g id="g-root-6_1d2dqdl1400lqj-stroke" data-item-order="1000000000" transform="translate(585, 303)"><g id="6_1d2dqdl1400lqj-stroke" fill="none" stroke-linecap="round" stroke-linejoin="round" stroke-miterlimit="4" stroke="#43dd93" stroke-width="2"><g><path d="M 11.875 28.123749L 20.625 28.123749C 20.625 28.123749 21.875 28.123749 21.875 29.373749L 21.875 38.123749C 21.875 38.123749 21.875 39.373749 20.625 39.373749L 11.875 39.373749C 11.875 39.373749 10.625 39.373749 10.625 38.123749L 10.625 29.373749C 10.625 29.373749 10.625 28.123749 11.875 28.123749M 29.375 28.123749L 38.125 28.123749C 38.125 28.123749 39.375 28.123749 39.375 29.373749L 39.375 38.123749C 39.375 38.123749 39.375 39.373749 38.125 39.373749L 29.375 39.373749C 29.375 39.373749 28.125 39.373749 28.125 38.123749L 28.125 29.373749C 28.125 29.373749 28.125 28.123749 29.375 28.123749M 21.875 10.62375L 30.625 10.62375C 30.625 10.62375 31.875 10.62375 31.875 11.87375L 31.875 20.623749C 31.875 20.623749 31.875 21.873749 30.625 21.873749L 21.875 21.873749C 21.875 21.873749 20.625 21.873749 20.625 20.623749L 20.625 11.87375C 20.625 11.87375 20.625 10.62375 21.875 10.62375M 35.625 28.125L 35.625 25.625C 35.625 24.934643 35.065353 24.375 34.375 24.375L 15.625 24.375C 14.934644 24.375 14.375 24.934643 14.375 25.625L 14.375 28.125M 26.875 21.873749L 26.875 24.373749M 23.125 14.37375L 29.375 14.37375M 30.625 31.873751L 36.875 31.873751M 13.125 31.873751L 19.375 31.873751"></path></g></g></g><g id="g-root-sett_1hjgczt13zqryk-stroke" data-item-order="1000000000" transform="translate(267, 285)"><g id="sett_1hjgczt13zqryk-stroke" fill="none" stroke-linecap="round" stroke-linejoin="round" stroke-miterlimit="4" stroke="#8769fd" stroke-width="2"><g><path d="M 23.75 26.875C 23.75 27.565357 24.309643 28.125 25 28.125C 25.690357 28.125 26.25 27.565357 26.25 26.875C 26.25 26.184643 25.690357 25.625 25 25.625C 24.309643 25.625 23.75 26.184643 23.75 26.875ZM 26.061251 22.040001L 26.43 23.25C 26.556305 23.667072 26.984037 23.915079 27.408751 23.817499L 28.635 23.532501C 29.112242 23.425325 29.603668 23.641335 29.847391 24.065414C 30.091114 24.489494 30.030357 25.022852 29.6975 25.38125L 28.838751 26.307499C 28.542702 26.627918 28.542702 27.122082 28.838751 27.442501L 29.6975 28.36875C 30.030357 28.72715 30.091114 29.260506 29.847391 29.684586C 29.603668 30.108664 29.112242 30.324677 28.635 30.217499L 27.408751 29.932501C 26.984037 29.834921 26.556305 30.08293 26.43 30.5L 26.061251 31.709999C 25.922625 32.181335 25.490051 32.505009 24.998749 32.505009C 24.50745 32.505009 24.074875 32.181335 23.936251 31.709999L 23.567501 30.5C 23.441193 30.08293 23.013462 29.834921 22.588751 29.932501L 21.362499 30.217499C 20.88526 30.324677 20.393833 30.108664 20.15011 29.684586C 19.906385 29.260506 19.967142 28.72715 20.299999 28.36875L 21.158751 27.442501C 21.4548 27.122082 21.4548 26.627918 21.158751 26.307501L 20.299999 25.38125C 19.967142 25.022852 19.906385 24.489494 20.15011 24.065414C 20.393833 23.641335 20.88526 23.425325 21.362499 23.532501L 22.588751 23.817499C 23.013462 23.915079 23.441193 23.667072 23.567501 23.25L 23.936251 22.040001C 24.074875 21.568663 24.50745 21.244989 24.998749 21.244989C 25.490051 21.244989 25.922625 21.568663 26.061251 22.040001ZM 22.8125 12.8125C 22.812502 14.020623 23.791878 15 25.000002 15C 26.208122 15 27.187502 14.020623 27.187502 12.8125C 27.187502 11.604377 26.208122 10.625 25.000002 10.625C 23.791878 10.625 22.812502 11.604377 22.812502 12.8125ZM 29.375 19.375C 28.865034 17.375114 27.063883 15.975616 25 15.975616C 22.936117 15.975616 21.134966 17.375114 20.625 19.375M 32.8125 32.8125C 32.8125 34.020622 33.791878 35 35 35C 36.208122 35 37.1875 34.020622 37.1875 32.8125C 37.1875 31.604378 36.208122 30.625 35 30.625C 33.791878 30.625 32.8125 31.604378 32.8125 32.8125ZM 39.375 39.375C 38.865036 37.375114 37.063881 35.975616 35 35.975616C 32.936119 35.975616 31.134968 37.375114 30.625 39.375M 12.8125 32.8125C 12.8125 34.020622 13.791878 35 15 35C 16.208122 35 17.1875 34.020622 17.1875 32.8125C 17.1875 31.604378 16.208122 30.625 15 30.625C 13.791878 30.625 12.8125 31.604378 12.8125 32.8125ZM 19.375 39.375C 18.865034 37.375114 17.063881 35.975616 15 35.975616C 12.936118 35.975616 11.134967 37.375114 10.625 39.375M 28.8125 36.25C 26.339087 37.083012 23.660912 37.083012 21.1875 36.25M 30.309999 14.375C 34.945103 16.697439 37.541618 21.754929 36.727501 26.875M 13.2725 26.875C 12.458389 21.754265 15.056127 16.696365 19.692499 14.375"></path></g></g></g><g id="g-root-tx_teamdyna_1qf3d8p13zqr5v-stroke" data-item-order="1000000000" transform="translate(93, 288)"></g><g id="g-root-1_4jtgp513zwdfs-stroke" data-item-order="1000000000" transform="translate(357, 621)"><g id="1_4jtgp513zwdfs-stroke" fill="none" stroke-linecap="round" stroke-linejoin="round" stroke-miterlimit="4" stroke="#a6da37" stroke-width="2"><g><path d="M 16.25 27.125C 13.488576 27.125 11.25 29.363577 11.25 32.125L 11.25 39L 21.25 39L 21.25 32.125C 21.25 29.363577 19.011423 27.125 16.25 27.125ZM 13.75 27.745001L 13.75 19.915001M 18.75 19.915001L 18.75 27.745001M 12.5 17.120001C 12.5 19.191069 14.178932 20.870001 16.25 20.870001C 18.321068 20.870001 20 19.191069 20 17.120001C 20 15.048932 18.321068 13.37 16.25 13.37C 14.178932 13.37 12.5 15.048932 12.5 17.120001M 28.463749 14.4475C 28.463749 16.34874 30.005009 17.889999 31.90625 17.889999C 33.807491 17.889999 35.348747 16.34874 35.348747 14.4475C 35.348747 12.54626 33.807491 11.005 31.90625 11.005C 30.005009 11.005 28.463749 12.54626 28.463749 14.4475M 28.615 12.80875L 18.815001 14.385M 19.932501 17.831249L 28.42375 16.465M 30.7425 17.889999L 31.04125 21.525M 33.954998 21.285L 33.65625 17.65625M 11.25 32.744999L 21.25 32.744999M 29.5625 21.616251L 32.53125 21.4025L 35.342499 21.200001M 32.84 25.154999L 32.53125 21.4025M 11.25 38.994999L 38.75 38.994999M 26.80625 39L 26.80625 36.356247C 26.81448 35.765083 27.300077 35.292355 27.891251 35.299999L 37.66375 35.299999C 38.255409 35.291656 38.741776 35.764591 38.75 36.356251L 38.75 39M 28.977501 35.299999L 32.7775 27.799999L 36.578751 35.299999L 28.977501 35.299999ZM 15.625 17.030001C 15.625 17.375177 15.904821 17.655001 16.25 17.655001C 16.595179 17.655001 16.875 17.375177 16.875 17.030001C 16.875 16.684822 16.595179 16.405001 16.25 16.405001C 15.904821 16.405001 15.625 16.684822 15.625 17.030001M 36.799999 23.13125L 38.2575 22.171251M 36.997498 26.091249L 38.21125 27.018749M 28.46125 23.845001L 26.817501 23.2575M 28.971251 26.766251L 28.012501 27.955"></path></g></g></g><g id="g-root-tx_automati_4jtgp513zwdfr-stroke" data-item-order="1000000000" transform="translate(393, 624)"></g><g id="g-root-tx_datahand_dj7bgp13zs45d-stroke" data-item-order="1000000000" transform="translate(531, 156)"></g><g id="g-root-2_dj7bgp13zs45e-stroke" data-item-order="1000000000" transform="translate(495, 153)"><g id="2_dj7bgp13zs45e-stroke" fill="none" stroke-linecap="round" stroke-linejoin="round" stroke-miterlimit="4" stroke="#fb6762" stroke-width="2"><g><path d="M 15.9375 23.125126C 18.698925 23.125126 20.9375 22.229725 20.9375 21.125149C 20.9375 20.020588 18.698925 19.125151 15.9375 19.125151C 13.176075 19.125151 10.9375 20.020588 10.9375 21.125149C 10.9375 22.229725 13.176075 23.125126 15.9375 23.125126ZM 10.9375 21.124962L 10.9375 29.125C 10.9375 30.25 13.1875 31.125 15.9375 31.125C 18.6875 31.125 20.9375 30.25 20.9375 29.125L 20.9375 21.124962M 35.751751 14.216625C 37.519127 14.216625 38.951752 13.440588 38.951752 12.4833C 38.951752 11.526 37.519127 10.74996 35.751751 10.74996C 33.984497 10.74996 32.55175 11.526 32.55175 12.4833C 32.55175 13.440588 33.984497 14.216625 35.751751 14.216625ZM 32.55175 12.483362L 32.55175 17.016687C 32.55175 17.950026 34.018501 18.750025 35.751751 18.750025C 37.485126 18.750025 38.951752 17.950026 38.951752 17.016687L 38.951752 12.483362M 35.751751 24.600126C 37.519127 24.600126 38.951752 23.824001 38.951752 22.866749C 38.951752 21.909462 37.519127 21.133425 35.751751 21.133425C 33.984497 21.133425 32.55175 21.909462 32.55175 22.866749C 32.55175 23.824001 33.984497 24.600126 35.751751 24.600126ZM 32.55175 22.866875L 32.55175 27.400126C 32.55175 28.3335 34.018501 29.133499 35.751751 29.133499C 37.485126 29.133499 38.951752 28.3335 38.951752 27.400126L 38.951752 22.866875M 35.751751 34.716625C 37.519127 34.716625 38.951752 33.940624 38.951752 32.98325C 38.951752 32.026001 37.519127 31.25 35.751751 31.25C 33.984497 31.25 32.55175 32.026001 32.55175 32.98325C 32.55175 33.940624 33.984497 34.716625 35.751751 34.716625ZM 32.55175 32.983376L 32.55175 37.51675C 32.55175 38.450001 34.018501 39.25 35.751751 39.25C 37.485126 39.25 38.951752 38.450001 38.951752 37.51675L 38.951752 32.983376M 29.557249 14.625L 27.057249 14.625L 27.057249 35.375L 29.557249 35.375M 29.557249 25L 23.932249 25M 10.9375 25.163876C 10.9375 26.221125 13.099663 27.086 15.937525 27.086C 18.775375 27.086 20.937536 26.221125 20.937536 25.163876"></path></g></g></g><g id="g-root-arti_v9uy1513zmhvq-stroke" data-item-order="1000000000" transform="translate(369, 135)"><g id="arti_v9uy1513zmhvq-stroke" fill="none" stroke-linecap="round" stroke-linejoin="round" stroke-miterlimit="4" stroke="#f79438" stroke-width="2"><g><path d="M 10.9375 27.5625L 10.9375 17.1875L 22.1875 10.9375M 39.0625 23.312376L 39.0625 33.562374L 28.6875 39.062378M 10 10M 33.125122 29.749624L 25.000126 34.249626L 16.875151 29.749624L 16.875151 20.999638L 25.000126 16.499638L 33.125122 20.999638L 33.125122 29.749624ZM 10 10M 21.625175 23.49975L 20.000151 25.37475L 21.625175 27.24975M 10 10M 28.5 23.49975L 30 25.37475L 28.5 27.24975M 10 10M 24.375126 28.12475L 25.625126 21.874699"></path></g></g></g><g id="g-root-tx_apiandwe_zp1z2h13zmk99-stroke" data-item-order="1000000000" transform="translate(75, 138)"></g></g></g></svg>